HIERARCHY
ROOT Hips
{
	OFFSET 0.00000 0.00000 0.00000
	CHANNELS 6 Xposition Yposition Zposition Zrotation Yrotation Xrotation 
	JOINT LHipJoint
	{
		OFFSET 0 0 0
		CHANNELS 3 Zrotation Yrotation Xrotation
		JOINT LeftUpLeg
		{
			OFFSET 1.36337 -1.57426 1.11036
			CHANNELS 3 Zrotation Yrotation Xrotation
			JOINT LeftLeg
			{
				OFFSET 2.38468 -6.55187 0.00000
				CHANNELS 3 Zrotation Yrotation Xrotation
				JOINT LeftFoot
				{
					OFFSET 2.37166 -6.51609 0.00000
					CHANNELS 3 Zrotation Yrotation Xrotation
					JOINT LeftToeBase
					{
						OFFSET 0.29078 -0.79891 2.01393
						CHANNELS 3 Zrotation Yrotation Xrotation
						End Site
						{
							OFFSET 0.00000 -0.00000 1.07924
						}
					}
				}
			}
		}
	}
	JOINT RHipJoint
	{
		OFFSET 0 0 0
		CHANNELS 3 Zrotation Yrotation Xrotation
		JOINT RightUpLeg
		{
			OFFSET -1.36349 -1.57426 1.11036
			CHANNELS 3 Zrotation Yrotation Xrotation
			JOINT RightLeg
			{
				OFFSET -2.29562 -6.30717 0.00000
				CHANNELS 3 Zrotation Yrotation Xrotation
				JOINT RightFoot
				{
					OFFSET -2.40985 -6.62100 0.00000
					CHANNELS 3 Zrotation Yrotation Xrotation
					JOINT RightToeBase
					{
						OFFSET -0.23197 -0.63733 1.92232
						CHANNELS 3 Zrotation Yrotation Xrotation
						End Site
						{
							OFFSET -0.00000 -0.00000 1.01562
						}
					}
				}
			}
		}
	}
	JOINT LowerBack
	{
		OFFSET 0 0 0
		CHANNELS 3 Zrotation Yrotation Xrotation
		JOINT Spine
		{
			OFFSET -0.08565 2.03602 -0.24562
			CHANNELS 3 Zrotation Yrotation Xrotation
			JOINT Spine1
			{
				OFFSET -0.00036 2.05693 0.00216
				CHANNELS 3 Zrotation Yrotation Xrotation
				JOINT Neck
				{
					OFFSET 0 0 0
					CHANNELS 3 Zrotation Yrotation Xrotation
					JOINT Neck1
					{
						OFFSET -0.03664 1.69515 0.31789
						CHANNELS 3 Zrotation Yrotation Xrotation
						JOINT Head
						{
							OFFSET 0.00932 1.70181 -0.46013
							CHANNELS 3 Zrotation Yrotation Xrotation
							End Site
							{
								OFFSET 0.01243 1.77620 -0.19377
							}
						}
					}
				}
				JOINT LeftShoulder
				{
					OFFSET 0 0 0
					CHANNELS 3 Zrotation Yrotation Xrotation
					JOINT LeftArm
					{
						OFFSET 3.74344 0.81315 -0.36647
						CHANNELS 3 Zrotation Yrotation Xrotation
						JOINT LeftForeArm
						{
							OFFSET 4.97185 -0.00000 -0.00000
							CHANNELS 3 Zrotation Yrotation Xrotation
							JOINT LeftHand
							{
								OFFSET 3.35811 -0.00000 0.00000
								CHANNELS 3 Zrotation Yrotation Xrotation
								JOINT LeftFingerBase
								{
									OFFSET 0 0 0
									CHANNELS 3 Zrotation Yrotation Xrotation
									JOINT LeftHandIndex1
									{
										OFFSET 0.62278 -0.00000 0.00000
										CHANNELS 3 Zrotation Yrotation Xrotation
										End Site
										{
											OFFSET 0.50210 -0.00000 0.00000
										}
									}
								}
								JOINT LThumb
								{
									OFFSET 0 0 0
									CHANNELS 3 Zrotation Yrotation Xrotation
									End Site
									{
										OFFSET 0.50976 -0.00000 0.50976
									}
								}
							}
						}
					}
				}
				JOINT RightShoulder
				{
					OFFSET 0 0 0
					CHANNELS 3 Zrotation Yrotation Xrotation
					JOINT RightArm
					{
						OFFSET -3.75385 0.50666 -0.06525
						CHANNELS 3 Zrotation Yrotation Xrotation
						JOINT RightForeArm
						{
							OFFSET -4.96493 -0.00000 -0.00000
							CHANNELS 3 Zrotation Yrotation Xrotation
							JOINT RightHand
							{
								OFFSET -3.34929 -0.00000 0.00000
								CHANNELS 3 Zrotation Yrotation Xrotation
								JOINT RightFingerBase
								{
									OFFSET 0 0 0
									CHANNELS 3 Zrotation Yrotation Xrotation
									JOINT RightHandIndex1
									{
										OFFSET -0.63804 -0.00000 0.00000
										CHANNELS 3 Zrotation Yrotation Xrotation
										End Site
										{
											OFFSET -0.51441 -0.00000 0.00000
										}
									}
								}
								JOINT RThumb
								{
									OFFSET 0 0 0
									CHANNELS 3 Zrotation Yrotation Xrotation
									End Site
									{
										OFFSET -0.52226 -0.00000 0.52226
									}
								}
							}
						}
					}
				}
			}
		}
	}
}
MOTION
Frames: 9
Frame Time: .0083333
-25.558 16.5167 1.4841 0 0 0 0 0 0 -21 0 0 0 0 0 0 0 0 0 0 0 0 0 0 21 0 0 0 0 0 0 0 0 0 0 0 0 0 0 0 0 0 0 0 0 0 0 -16 0 0 21 0 0 11 0 0 0 -8 0 0 0 0 0 0 0 0 0 0 0 0 0 0 0 0 0 0 0 0 8 0 0 0 0 0 0 0 0 0 0 0 0 0 0 0 0 0
-25.5580 16.5167 1.4841 175.7680 28.5438 -167.0500 0.0000 0.0000 0.0000 -10.6348 2.9401 -32.8225 5.6313 14.0613 43.4833 -0.4589 12.9418 -10.2202 0.3929 -4.0246 -11.1459 0.0000 0.0000 0.0000 23.5867 0.1324 -19.1070 -1.6112 -8.0045 22.7276 -2.5755 -18.4325 -41.1725 -1.3140 -7.2607 20.4900 8.2491 1.2281 -23.0227 1.2096 -0.4205 -0.6944 -3.4703 0.3655 12.1214 8.8847 10.2934 -14.8314 -7.1446 15.7630 26.7380 -1.5467 7.4800 12.6325 0.0000 0.0000 0.0000 -87.2094 -18.9840 78.7440 100.2773 -59.5971 -68.8883 -0.0000 0.0000 -36.6665 -2.5956 -11.2139 0.5051 -7.1250 0.0000 -0.0000 -20.5819 19.0688 13.6320 0.0000 0.0000 0.0000 100.6128 39.5744 107.7046 -113.0522 57.8936 -79.8226 0.0000 -0.0000 -7.1633 -0.6459 -16.9454 0.1882 7.1250 -0.0000 -0.0000 25.1394 -45.2996 -0.1987
-25.5543 16.5087 1.4658 175.9450 28.9068 -167.0650 0.0000 0.0000 0.0000 -10.5268 2.8890 -33.0857 5.7203 14.1518 43.8488 -0.3996 12.2690 -10.0650 0.4167 -4.1434 -11.4804 0.0000 0.0000 0.0000 23.6568 0.6477 -18.7400 -1.6137 -8.0103 22.7452 -2.5636 -18.4108 -41.1014 -1.7028 -8.2174 23.3764 8.2698 1.3377 -22.9452 1.2662 -0.2916 -0.6083 -3.3749 0.4267 12.1949 8.8667 10.2961 -14.9487 -7.1662 15.7372 26.6528 -1.5522 7.4554 12.6202 0.0000 0.0000 0.0000 -87.2799 -19.0050 78.8914 100.4601 -59.5825 -69.0460 -0.0000 0.0000 -36.6180 -2.6374 -11.5227 0.5272 -7.1250 0.0000 -0.0000 -20.5704 18.7795 13.7664 0.0000 0.0000 0.0000 100.4292 39.6733 107.6153 -112.8946 57.9237 -79.6891 0.0000 -0.0000 -6.7945 -1.2325 -17.0866 0.3622 7.1250 -0.0000 -0.0000 24.6916 -45.4987 -0.3240
-25.5570 16.5150 1.4442 175.6680 29.4107 -167.1480 0.0000 0.0000 0.0000 -10.8315 2.5813 -33.3811 5.7831 14.2148 44.1050 -0.3588 11.7986 -9.9958 0.4922 -4.4982 -12.4827 0.0000 0.0000 0.0000 23.2813 0.6248 -18.6790 -1.5856 -7.9436 22.5429 -2.4398 -18.3527 -40.4891 -1.8050 -8.4475 24.0816 7.9643 1.3631 -22.9981 1.2390 -0.1876 -0.5764 -3.1978 0.4586 12.2744 8.7829 10.3500 -14.8796 -7.2671 15.8213 26.4061 -1.5694 7.4740 12.5179 -0.0000 0.0000 0.0000 -87.4029 -19.0089 78.8221 100.5381 -59.5762 -69.1133 -0.0000 0.0000 -36.3561 -2.7727 -11.5925 0.5576 -7.1250 0.0000 -0.0000 -20.6509 18.7149 13.8603 -0.0000 0.0000 0.0000 100.2404 39.6602 107.6753 -112.7455 57.9519 -79.5627 0.0000 -0.0000 -6.0558 -2.0045 -16.8793 0.5822 7.1250 -0.0000 -0.0000 23.9316 -45.4035 -0.2530
-25.5509 16.5196 1.4231 175.9220 29.7745 -167.2880 0.0000 0.0000 0.0000 -10.3085 2.0457 -33.1930 5.8388 14.2703 44.3315 -0.2680 10.9882 -10.5524 0.4292 -4.2046 -11.6530 0.0000 0.0000 0.0000 23.5059 0.4887 -18.2716 -1.5653 -7.8950 22.3956 -2.3659 -18.3964 -40.1827 -1.7519 -8.3289 23.7176 8.0670 1.3814 -22.7422 1.2608 -0.1816 -0.4987 -3.2298 0.4626 12.2232 8.9421 10.4140 -14.7112 -7.3748 15.8742 26.1903 -1.6361 7.5044 12.4290 0.0000 0.0000 0.0000 -87.4045 -18.9607 78.7178 100.3284 -59.5931 -68.9324 -0.0000 0.0000 -35.9447 -2.9801 -11.4872 0.5940 -7.1250 0.0000 -0.0000 -20.8010 18.8145 13.9262 0.0000 0.0000 0.0000 100.3649 39.4490 107.6543 -112.7029 57.9600 -79.5266 0.0000 -0.0000 -5.6046 -2.1320 -16.5993 0.6093 7.1250 -0.0000 -0.0000 23.7036 -45.1628 -0.1011
-25.5521 16.5259 1.3980 175.9270 30.1831 -167.4430 0.0000 0.0000 0.0000 -10.0029 1.2238 -32.9248 5.8610 14.2922 44.4211 -0.1481 10.2019 -11.8186 0.2684 -3.3329 -9.2070 0.0000 0.0000 0.0000 23.5192 -0.3073 -18.2513 -1.5431 -7.8413 22.2331 -2.2127 -18.1100 -39.2200 -1.6321 -8.0537 22.8772 8.0523 1.4207 -22.6029 1.1645 -0.1134 -0.4504 -3.3087 0.4929 12.2095 9.3034 10.4294 -14.6400 -7.6029 15.8631 26.1160 -1.7808 7.5073 12.4416 -0.0000 0.0000 0.0000 -87.3564 -18.8805 78.7678 100.1486 -59.6072 -68.7773 -0.0000 0.0000 -35.6835 -2.5675 -11.6096 0.5170 -7.1250 0.0000 -0.0000 -20.5134 18.6977 13.7630 -0.0000 0.0000 0.0000 100.5804 39.2824 107.6789 -112.8467 57.9328 -79.6485 0.0000 -0.0000 -5.8486 -2.1855 -17.1163 0.6435 7.1250 -0.0000 -0.0000 23.8738 -45.6419 -0.4013
-25.5567 16.5294 1.3701 175.7880 30.6624 -167.5830 0.0000 0.0000 0.0000 -9.9578 0.5378 -32.8449 5.8552 14.2866 44.3979 -0.0765 9.7123 -12.4546 0.1800 -2.7329 -7.5361 0.0000 0.0000 0.0000 23.3248 -0.8235 -18.2355 -1.5194 -7.7838 22.0592 -2.1230 -17.7491 -38.4800 -1.5198 -7.7846 22.0619 7.7566 1.4075 -22.6108 1.2038 -0.0697 -0.3864 -3.0814 0.4957 12.2933 9.2585 10.4241 -14.6331 -7.7117 15.8939 26.0723 -1.8090 7.5050 12.4329 -0.0000 -0.0000 0.0000 -87.4997 -18.8717 78.8627 100.2437 -59.5998 -68.8594 -0.0000 0.0000 -35.6027 -1.8392 -11.7835 0.3757 -7.1250 0.0000 -0.0000 -20.0111 18.5287 13.4595 -0.0000 -0.0000 0.0000 100.4332 39.2750 107.8700 -113.0558 57.8930 -79.8256 0.0000 -0.0000 -6.3235 -2.8569 -18.2008 0.8930 7.1250 -0.0000 -0.0000 23.7535 -46.7176 -1.0657
-25.5608 16.5303 1.3402 175.9220 31.1448 -167.5290 0.0000 0.0000 0.0000 -9.6792 0.0023 -32.9040 5.8098 14.2415 44.2135 -0.0587 9.4267 -12.3530 0.0944 -1.9819 -5.4555 0.0000 0.0000 0.0000 23.3274 -0.7438 -18.1121 -1.5118 -7.7651 22.0027 -2.1290 -17.5220 -38.3180 -1.4769 -7.6790 21.7432 7.8259 1.4532 -22.5087 1.2050 -0.0175 -0.4004 -3.1030 0.5208 12.2262 9.0068 10.5062 -14.8336 -7.3783 15.9838 26.2685 -1.6192 7.5475 12.5025 -0.0000 0.0000 0.0000 -87.4422 -18.8617 78.8510 100.2708 -59.5976 -68.8828 -0.0000 0.0000 -35.5950 -1.7956 -11.7340 0.3653 -7.1250 0.0000 -0.0000 -19.9882 18.5749 13.4200 -0.0000 0.0000 0.0000 100.4975 39.1762 107.7111 -112.6425 57.9713 -79.4754 0.0000 -0.0000 -5.7939 -1.9107 -16.8768 0.5549 7.1250 -0.0000 -0.0000 24.0122 -45.3899 -0.2455
-25.5667 16.5276 1.3076 176.0430 31.6311 -167.5430 0.0000 0.0000 0.0000 -9.4822 -0.2915 -32.9598 5.7310 14.1625 43.8922 -0.0661 9.1919 -11.8377 0.2439 -3.1779 -8.7745 0.0000 0.0000 0.0000 23.2978 -0.5448 -17.8649 -1.5080 -7.7556 21.9743 -2.1283 -17.4250 -38.2331 -1.4993 -7.7344 21.9103 8.0335 1.5229 -22.4175 1.0683 0.0299 -0.3219 -3.3607 0.5589 12.2729 9.2069 10.5957 -14.8111 -7.4190 16.0129 26.0491 -1.6646 7.5672 12.4367 0.0000 0.0000 0.0000 -87.2360 -18.9878 78.7301 100.2019 -59.6031 -68.8233 -0.0000 0.0000 -35.5541 -2.0593 -11.5930 0.4140 -7.1250 0.0000 -0.0000 -20.1797 18.7097 13.5015 0.0000 0.0000 0.0000 100.7020 39.2343 107.9209 -112.7242 57.9560 -79.5447 0.0000 -0.0000 -5.8165 -2.4909 -17.5488 0.7515 7.1250 -0.0000 -0.0000 23.7913 -46.0751 -0.6691
